<?xml version="1.0" encoding="UTF-8"?>
<svg xmlns="http://www.w3.org/2000/svg" viewBox="0 0 405 408" width="405" height="408">
<path d="M154.5 80.13C154.58 80.25 154.67 80.38 154.75 80.5C155.33 80.75 155.92 81 156.5 81.25C156.17 81.58 155.83 81.92 155.5 82.25C155.5 82.49 155.5 82.72 155.5 82.96C153.67 84.8 151.23 85.97 149.06 87.33C144.63 90.1 140.25 93.68 136.46 97.27C133.4 100.17 130.64 103.51 128.08 106.88C126.91 108.41 126.36 110.3 125.02 111.65C124.35 112.02 123.67 112.38 123 112.75C122.83 113.75 122.67 114.75 122.5 115.75C122.65 115.83 122.8 115.92 122.95 116C122.89 117.15 122.82 118.31 122.75 119.46C123.01 119.47 123.28 119.48 123.54 119.48C123.4 119.91 123.26 120.33 123.12 120.75C118.38 122.52 114.08 128.73 110.95 132.69C102.98 142.75 96.33 153.11 91.75 165.03C77.08 203.16 81.44 247.53 92.9 285.83C95.59 294.82 98.04 303.89 101.77 312.44C103.43 316.25 104.08 321.07 106.54 324.25C106.15 326.23 107.85 329.6 109.25 331C110.47 328.56 106.28 317.3 105.23 313.77C102.74 305.31 101.26 296.62 99.75 287.97C98.47 280.63 96.56 273.18 96.05 265.75C94.07 236.71 93.29 208.14 103.21 180.42C114.28 149.52 142.88 118.18 176.28 112.08C188.77 109.8 201.62 111.42 213.57 115.23C231.38 120.91 246.55 134.67 257.84 148.9C290.77 190.36 292.82 240.89 272.23 288.41C267.02 300.43 261.38 312.05 253.32 322.57C238.32 342.15 224.44 354.78 202.45 366.24C198.07 368.52 184.81 375.54 180.57 375.06C180.83 374.79 181.09 374.52 181.34 374.25C179.4 373.92 177.45 373.58 175.5 373.25C175 373.19 174.5 373.14 174 373.08C173.92 372.89 173.83 372.69 173.75 372.5C173.25 372.33 172.75 372.17 172.25 372C170.92 371.83 169.58 371.67 168.25 371.5C167.98 371.75 167.72 372 167.45 372.25C162.59 371.62 158.26 369.99 153.83 367.86C151.93 366.94 149.91 365.42 147.75 365.04C141.27 363.91 134.93 366.74 128.57 366.27C126.15 365.74 117.69 364.38 116 365.54C112.17 364.2 106.5 363.36 103.77 360.07C103.23 358.41 101.21 357.92 99.75 357C99.34 357.05 98.92 357.1 98.51 357.15C95.46 356.33 92.76 353.83 90.18 352.07C82.89 347.11 75.19 341.36 69.56 334.44C69.71 334.21 69.85 333.98 70 333.75C69.08 332.5 68.17 331.25 67.25 330C66.33 329.55 65.41 329.09 64.49 328.64C60.72 325.37 56.08 319.67 54.3 315.05C54.37 314.61 54.43 314.18 54.5 313.75C53.31 312.41 52.12 311.06 50.94 309.72C48.51 307.66 47.39 304.13 45.81 301.42C41.25 293.63 38.43 285.33 35.66 277C36.47 275.07 34.94 269.45 33.43 268.08C30.82 262.97 29.71 253.3 29.74 247.51C29.83 245.26 29.91 243 30 240.75C29.71 240.33 29.42 239.92 29.13 239.5C27.35 224.31 29 201.94 33.39 187.5C35.38 185.55 36.2 180.74 35.84 178.04C36.56 172.63 41.73 156.64 45.09 152.5C45.31 152.5 45.53 152.5 45.75 152.5C46.5 151.25 47.25 150 48 148.75C47.96 148.19 47.92 147.63 47.88 147.07C48.43 143.86 51.06 140.77 52.68 137.98C56.11 132.06 60.63 124.3 66.07 119.96C68.02 119.48 72.17 115.4 72.3 113.46C74.35 110.97 81 104.41 83.93 103.93C84.29 104.03 84.64 104.14 85 104.25C87.65 102.17 90.3 100.09 92.94 98.01C95.11 95.38 103.33 92.28 106.65 90.86C120.97 84.73 138.38 78.63 154.5 80.13ZM121.56 99.25C120.69 97.43 118.42 97.31 116.5 97.25C114.89 101.23 111.42 100.74 108.07 102.33C104.04 104.24 96.37 109.66 92.64 112.39C88.81 115.2 86.16 119.83 83.11 123.36C81.4 125.34 78.8 126.92 77.38 129.12C74.78 133.11 71.9 137.21 69.79 141.51C68.9 143.31 68.74 145.36 67.91 147.17C65.6 152.21 64.79 152.48 63.36 158.25C63.04 159.56 61.92 160.09 61.52 161.28C60.75 163.56 59.11 174.61 60.17 176.25C63.02 175.8 63.15 172.05 63.98 169.76C65.99 164.23 69.4 158.36 72.64 153.48C78.62 144.49 86.32 138.27 93.95 130.71C94.98 129.7 95.49 128.28 96.55 127.3C99.08 124.96 102.25 122.41 105.07 120.33C107.13 118.82 109.87 118.14 111.89 116.62C116.24 113.38 116.74 106.08 121.56 105.25C121.56 103.25 121.56 101.25 121.56 99.25ZM193.34 126.34C186.02 126.19 178.03 126.3 170.98 128.42C168.21 129.26 165.63 130.69 162.87 131.64C160.08 132.61 156.65 133.46 154.09 135C150.24 137.33 146.61 141.1 143.48 144.25C138.68 149.07 133.5 153.59 128.99 158.76C124.93 163.4 123.04 169.07 120.18 174.43C119.5 175.72 118.17 176.41 117.43 177.67C116.02 180.05 115.23 182.42 114.12 184.86C110.27 193.33 107.23 205.42 108.81 214.88C109.26 217.62 109.79 222.27 112.07 224.17C120.96 231.58 131.34 226.78 140.82 224.64C146.93 223.26 152.35 221.57 158.25 219.51C160.98 218.55 164.04 218.56 166.69 217.47C173.36 214.72 180.03 211.69 186.66 208.89C188.11 208.27 189.68 208.36 191.11 207.81C193.23 207.01 195.42 204.91 197.55 203.83C200.46 202.36 203.91 201.76 206.72 199.99C207.68 199.4 208.05 198.36 208.98 197.74C211.41 196.11 214.33 194.65 216.86 193.09C218.55 192.03 220.79 192.15 222.53 191.2C223.81 190.5 224 189.18 225.03 188.29C226.98 186.61 229.58 185.56 231.53 183.78C233.62 181.88 235.17 179.38 237.21 177.48C237.91 176.82 238.93 176.59 239.54 175.79C239.83 175.4 243.32 168.22 243.65 167.37C248.1 155.91 242.63 144.22 232.93 137.34C230.87 135.87 228.03 135.66 225.8 134.46C216.66 129.56 203.71 126.56 193.34 126.34Z" fill="#871c40" fill-rule="evenodd" stroke="#871c40" stroke-width="0.25" stroke-linejoin="round"/>
<path d="M154.5 80.13C155.86 80.33 157.23 80.54 158.59 80.75C157.56 81.49 156.53 82.22 155.5 82.96C155.5 82.72 155.5 82.49 155.5 82.25C155.83 81.92 156.17 81.58 156.5 81.25C155.92 81 155.33 80.75 154.75 80.5C154.67 80.38 154.58 80.25 154.5 80.13ZM215 90.94C219.55 92.72 223.53 98.35 226.89 101.87C231.85 107.06 237.95 112.16 243.5 116.75C251.85 123.63 261.83 128.93 271.9 132.81C274.6 133.85 277.42 134.13 280 135.32C281.27 137.64 283.36 139.68 284.9 141.85C288.15 146.44 291.06 151.56 293.87 156.37C303.75 173.23 310.6 196.36 311.96 215.75C315.29 263.08 299.48 308.76 270.45 345.68C261.38 357.21 249.96 365.83 238.88 375.13C223.56 387.98 197.18 399.65 177.75 401.96C166.89 403.25 154.42 402.38 144.37 398.82C139.89 397.24 136.05 393.54 131.25 392.95C126.47 392.36 121.16 394.13 116.25 394.01C107.76 393.8 98.67 391.69 90.87 388.82C51.29 374.28 25.26 333.87 10.2 297.1C6.14 287.2 4.73 276.48 2.16 266.17C1.38 263.03 1.93 255.23 0.08 253C0.08 243.33 0.08 233.67 0.08 224C1.61 222.37 0.76 219.59 1.26 217.48C2.91 210.4 2.99 202.79 5.21 195.9C8.88 184.54 11.87 172.8 17.24 161.96C22.87 150.6 29.7 140.47 36.62 129.88C39.19 125.94 48.31 113.37 52.25 111.91C52.26 114.1 49.35 116.39 48.18 118.39C44.26 125.1 39.73 131.45 36.1 138.33C25.75 157.98 18.77 178.88 15.1 200.76C14.16 206.38 14.19 212.05 13.93 217.75C12.33 251.9 20.46 280.4 36.75 309.47C39.49 314.36 42.43 319.4 46 323.78C48.83 327.26 51.09 331.24 54.03 334.68C65.33 347.9 77.92 359.29 93.39 366.83C108.14 374.02 118.25 368.49 133.25 369C140.72 369.25 147.2 374.52 154.26 375.98C165.37 378.26 170.32 375.89 180.57 375.06C184.81 375.54 198.07 368.52 202.45 366.24C224.44 354.78 238.32 342.15 253.32 322.57C261.38 312.05 267.02 300.43 272.23 288.41C292.82 240.89 290.77 190.36 257.84 148.9C246.55 134.67 231.38 120.91 213.57 115.23C201.62 111.42 188.77 109.8 176.28 112.08C142.88 118.18 114.28 149.52 103.21 180.42C93.29 208.14 94.07 236.71 96.05 265.75C96.56 273.18 98.47 280.63 99.75 287.97C101.26 296.62 102.74 305.31 105.23 313.77C106.28 317.3 110.47 328.56 109.25 331C107.85 329.6 106.15 326.23 106.54 324.25C104.08 321.07 103.43 316.25 101.77 312.44C98.04 303.89 95.59 294.82 92.9 285.83C81.44 247.53 77.08 203.16 91.75 165.03C96.33 153.11 102.98 142.75 110.95 132.69C114.08 128.73 118.38 122.52 123.12 120.75C123.26 120.33 123.4 119.91 123.54 119.48C132.01 113.43 139.53 106.06 148.89 101.21C152.63 99.27 161.2 96.24 163.95 94.05C165.55 93.69 167.15 93.34 168.75 92.98C168.86 92.78 168.98 92.59 169.09 92.39C173.72 91.29 178.34 90.19 182.97 89.08C186.3 89.28 189.46 88.59 192.75 88.42C200.11 88.04 208.04 88.99 215 90.94ZM233.2 97.39C243.41 100.97 257.45 109.91 264.63 118.38C262.69 119.09 258.9 116.36 257.02 115.25C250.88 111.6 245.37 107.21 239.4 103.35C237.92 102.39 232.31 98.8 233.2 97.39ZM92.94 98.01C90.3 100.09 87.65 102.17 85 104.25C84.64 104.14 84.29 104.03 83.93 103.93C86.93 101.96 89.94 99.98 92.94 98.01ZM125.02 111.65C124.33 113.1 123.64 114.55 122.95 116C122.8 115.92 122.65 115.83 122.5 115.75C122.67 114.75 122.83 113.75 123 112.75C123.67 112.38 124.35 112.02 125.02 111.65ZM72.3 113.46C72.17 115.4 68.02 119.48 66.07 119.96C68.14 117.79 70.22 115.63 72.3 113.46ZM47.88 147.07C47.92 147.63 47.96 148.19 48 148.75C47.25 150 46.5 151.25 45.75 152.5C45.53 152.5 45.31 152.5 45.09 152.5C46.02 150.69 46.95 148.88 47.88 147.07ZM35.84 178.04C36.2 180.74 35.38 185.55 33.39 187.5C33.33 187.25 33.27 187 33.21 186.75C34.09 183.85 34.96 180.95 35.84 178.04ZM29.13 239.5C29.42 239.92 29.71 240.33 30 240.75C29.91 243 29.83 245.26 29.74 247.51C29.54 244.84 29.33 242.17 29.13 239.5ZM33.43 268.08C34.94 269.45 36.47 275.07 35.66 277C34.92 274.03 34.17 271.06 33.43 268.08ZM50.94 309.72C52.12 311.06 53.31 312.41 54.5 313.75C54.43 314.18 54.37 314.61 54.3 315.05C53.18 313.27 52.06 311.5 50.94 309.72ZM64.49 328.64C65.41 329.09 66.33 329.55 67.25 330C68.17 331.25 69.08 332.5 70 333.75C69.85 333.98 69.71 334.21 69.56 334.44C67.87 332.51 66.18 330.57 64.49 328.64ZM98.51 357.15C98.92 357.1 99.34 357.05 99.75 357C101.21 357.92 103.23 358.41 103.77 360.07C102.02 359.09 100.26 358.12 98.51 357.15ZM128.57 366.27C124.8 367.28 119.71 366.56 116 365.54C117.69 364.38 126.15 365.74 128.57 366.27ZM174 373.08C171.82 372.8 169.64 372.53 167.45 372.25C167.72 372 167.98 371.75 168.25 371.5C169.58 371.67 170.92 371.83 172.25 372C172.75 372.17 173.25 372.33 173.75 372.5C173.83 372.69 173.92 372.89 174 373.08Z" fill="#43031f" fill-rule="evenodd" stroke="#43031f" stroke-width="0.25" stroke-linejoin="round"/>
<path d="M360.95 30.16C364.3 30.5 367.65 30.85 371 31.19C371.08 31.46 371.17 31.73 371.25 32C375.08 32 378.92 32 382.75 32C382.83 31.68 382.92 31.36 383 31.04C385.34 30.75 387.69 30.45 390.03 30.16C391.27 30.24 392.51 30.32 393.75 30.4C393.69 32.1 393.63 33.81 393.56 35.52C392.17 34.77 387.81 36.69 385.75 36.88C377.41 37.63 369.11 38.84 360.75 39.47C358.08 39.67 352.88 38.15 351.16 40.25C356.79 43.4 365.45 43.05 371.75 43.19C374.4 43.25 377.88 42.56 380.22 43.75C378.9 49.79 374.19 56.02 371.17 61.41C361.06 79.46 347.96 97.21 330.95 109.21C326.17 112.59 321.1 115.39 316.02 118.28C313.81 119.54 311.56 121.55 308.99 121C306.61 119.86 299.21 121.07 296.25 121.2C292.08 121.4 277.77 118.44 274.49 116.09C274.66 115.81 274.83 115.53 275 115.25C273.75 114.83 272.5 114.42 271.25 114C270.67 113.75 270.08 113.5 269.5 113.25C269.68 113.49 269.85 113.74 270.03 113.98C269.2 113.67 268.37 113.35 267.54 113.04C267.86 112.94 268.18 112.85 268.5 112.75C268.25 112.33 268 111.92 267.75 111.5C267.25 111.17 266.75 110.83 266.25 110.5C265.58 110.33 264.92 110.17 264.25 110C263.86 110.03 263.47 110.06 263.08 110.09C259.13 108.94 256.17 105.7 252.87 103.39C243.45 96.8 236.22 87.76 227.82 79.92C226.63 78.81 224.96 78.42 223.54 77.7C219.09 75.41 215.48 72.32 212.26 68.49C210.35 66.21 205.71 58.95 205.19 56.14C204.45 52.09 209.31 51.22 212.15 52.2C215.05 53.2 217.74 63.89 221.94 66.15C224.43 69.19 226.88 69.14 230 67.14C233.95 65.45 237.34 61.57 240.43 58.68C245.86 53.59 251.4 48.26 257.01 43.26C268.64 32.87 286.75 24.19 301.84 21.18C314.8 18.6 329.63 20.68 342.16 24.16C348.29 25.86 354.54 29.92 360.95 30.16ZM213.96 24.92C218.55 28.34 218.7 34.56 217.86 39.57C216.91 41 215.95 42.44 215 43.87C212.54 44.93 210.27 46.54 207.77 47.56C205.45 48.5 202.45 48.7 200.34 50.08C196.1 52.84 192.38 58.37 190.86 63.06C189.56 66.55 188.26 70.04 186.97 73.52C185.05 78.18 183 83.97 182.97 89.08C178.34 90.19 173.72 91.29 169.09 92.39C168.48 92.26 167.86 92.13 167.25 92C169.23 88.56 169.11 80.85 170.28 76.55C173 66.64 177.95 57.12 181.9 47.66C183.5 43.84 187.79 33.67 191.75 32.22C192.73 35.33 193.16 41.59 196.25 43.17C197.8 41.3 195.5 37.46 195.95 34.75C197.23 26.98 202.98 22.93 210.66 23.61C211.88 23.72 212.83 24.7 213.96 24.92ZM357.03 52.75C353.37 53.07 349.39 56.22 346.07 57.78C336.98 62.05 327.75 66.9 318.15 69.81C305.99 73.49 293.43 75.72 280.77 76.71C273.39 77.28 264.65 75.65 257.61 78.25C259.52 81.55 274.04 85.61 278.1 86.22C290.26 88.05 309.51 87.28 321.04 82.76C326.8 80.51 331.89 76.46 337.4 73.67C343.42 70.61 349.76 64.35 353.54 58.8C354.52 57.37 357.39 54.38 357.03 52.75Z" fill="#94c30f" fill-rule="evenodd" stroke="#94c30f" stroke-width="0.25" stroke-linejoin="round"/>
<path d="M121.56 99.25C121.56 101.25 121.56 103.25 121.56 105.25C116.74 106.08 116.24 113.38 111.89 116.62C109.87 118.14 107.13 118.82 105.07 120.33C102.25 122.41 99.08 124.96 96.55 127.3C95.49 128.28 94.98 129.7 93.95 130.71C86.32 138.27 78.62 144.49 72.64 153.48C69.4 158.36 65.99 164.23 63.98 169.76C63.15 172.05 63.02 175.8 60.17 176.25C59.11 174.61 60.75 163.56 61.52 161.28C61.92 160.09 63.04 159.56 63.36 158.25C64.79 152.48 65.6 152.21 67.91 147.17C68.74 145.36 68.9 143.31 69.79 141.51C71.9 137.21 74.78 133.11 77.38 129.12C78.8 126.92 81.4 125.34 83.11 123.36C86.16 119.83 88.81 115.2 92.64 112.39C96.37 109.66 104.04 104.24 108.07 102.33C111.42 100.74 114.89 101.23 116.5 97.25C118.42 97.31 120.69 97.43 121.56 99.25ZM193.34 126.34C203.71 126.56 216.66 129.56 225.8 134.46C228.03 135.66 230.87 135.87 232.93 137.34C242.63 144.22 248.1 155.91 243.65 167.37C243.32 168.22 239.83 175.4 239.54 175.79C238.93 176.59 237.91 176.82 237.21 177.48C235.17 179.38 233.62 181.88 231.53 183.78C229.58 185.56 226.98 186.61 225.03 188.29C224 189.18 223.81 190.5 222.53 191.2C220.79 192.15 218.55 192.03 216.86 193.09C214.33 194.65 211.41 196.11 208.98 197.74C208.05 198.36 207.68 199.4 206.72 199.99C203.91 201.76 200.46 202.36 197.55 203.83C195.42 204.91 193.23 207.01 191.11 207.81C189.68 208.36 188.11 208.27 186.66 208.89C180.03 211.69 173.36 214.72 166.69 217.47C164.04 218.56 160.98 218.55 158.25 219.51C152.35 221.57 146.93 223.26 140.82 224.64C131.34 226.78 120.96 231.58 112.07 224.17C109.79 222.27 109.26 217.62 108.81 214.88C107.23 205.42 110.27 193.33 114.12 184.86C115.23 182.42 116.02 180.05 117.43 177.67C118.17 176.41 119.5 175.72 120.18 174.43C123.04 169.07 124.93 163.4 128.99 158.76C133.5 153.59 138.68 149.07 143.48 144.25C146.61 141.1 150.24 137.33 154.09 135C156.65 133.46 160.08 132.61 162.87 131.64C165.63 130.69 168.21 129.26 170.98 128.42C178.03 126.3 186.02 126.19 193.34 126.34Z" fill="#ab1951" fill-rule="evenodd" stroke="#ab1951" stroke-width="0.25" stroke-linejoin="round"/>
<path d="M213.96 24.92C212.83 24.7 211.88 23.72 210.66 23.61C202.98 22.93 197.23 26.98 195.95 34.75C195.5 37.46 197.8 41.3 196.25 43.17C193.16 41.59 192.73 35.33 191.75 32.22C187.79 33.67 183.5 43.84 181.9 47.66C177.95 57.12 173 66.64 170.28 76.55C169.11 80.85 169.23 88.56 167.25 92C167.86 92.13 168.48 92.26 169.09 92.39C168.98 92.59 168.86 92.78 168.75 92.98C167.15 93.34 165.55 93.69 163.95 94.05C164.13 75.97 170.81 43.56 183.22 29.97C191.52 20.88 203.64 13.14 213.96 24.92ZM371 31.19C375 31.14 379 31.09 383 31.04C382.92 31.36 382.83 31.68 382.75 32C378.92 32 375.08 32 371.25 32C371.17 31.73 371.08 31.46 371 31.19ZM393.56 35.52C391.8 38.28 391.07 41.49 389.69 44.44C385.86 52.54 381.82 60.55 377.73 68.51C364.89 93.5 341.39 121.59 315.16 132.87C307.84 136.02 298.6 135.88 290.75 135.63C287.44 135.52 283.1 134.42 280 135.32C277.42 134.13 274.6 133.85 271.9 132.81C261.83 128.93 251.85 123.63 243.5 116.75C237.95 112.16 231.85 107.06 226.89 101.87C223.53 98.35 219.55 92.72 215 90.94C215.47 89.47 212.36 87.41 211.21 86.55C207.79 83.98 202.02 78.71 202.25 74.26C206.19 79.81 212.24 82.95 217.92 86.33C223.29 89.53 228.09 94.05 233.2 97.39C232.31 98.8 237.92 102.39 239.4 103.35C245.37 107.21 250.88 111.6 257.02 115.25C258.9 116.36 262.69 119.09 264.63 118.38C271.68 124.72 291.29 125.28 300.22 123.39C302.97 122.8 306.73 122.77 308.99 121C311.56 121.55 313.81 119.54 316.02 118.28C321.1 115.39 326.17 112.59 330.95 109.21C347.96 97.21 361.06 79.46 371.17 61.41C374.19 56.02 378.9 49.79 380.22 43.75C377.88 42.56 374.4 43.25 371.75 43.19C365.45 43.05 356.79 43.4 351.16 40.25C352.88 38.15 358.08 39.67 360.75 39.47C369.11 38.84 377.41 37.63 385.75 36.88C387.81 36.69 392.17 34.77 393.56 35.52ZM357.03 52.75C357.39 54.38 354.52 57.37 353.54 58.8C349.76 64.35 343.42 70.61 337.4 73.67C331.89 76.46 326.8 80.51 321.04 82.76C309.51 87.28 290.26 88.05 278.1 86.22C274.04 85.61 259.52 81.55 257.61 78.25C264.65 75.65 273.39 77.28 280.77 76.71C293.43 75.72 305.99 73.49 318.15 69.81C327.75 66.9 336.98 62.05 346.07 57.78C349.39 56.22 353.37 53.07 357.03 52.75ZM263.08 110.09C263.47 110.06 263.86 110.03 264.25 110C264.92 110.17 265.58 110.33 266.25 110.5C266.75 110.83 267.25 111.17 267.75 111.5C268 111.92 268.25 112.33 268.5 112.75C268.18 112.85 267.86 112.94 267.54 113.04C266.05 112.06 264.56 111.07 263.08 110.09ZM274.49 116.09C273 115.39 271.52 114.69 270.03 113.98C269.85 113.74 269.68 113.49 269.5 113.25C270.08 113.5 270.67 113.75 271.25 114C272.5 114.42 273.75 114.83 275 115.25C274.83 115.53 274.66 115.81 274.49 116.09Z" fill="#6f980d" fill-rule="evenodd" stroke="#6f980d" stroke-width="0.25" stroke-linejoin="round"/>
<path d="M360.95 30.16C370.65 30.16 380.34 30.16 390.03 30.16C387.69 30.45 385.34 30.75 383 31.04C379 31.09 375 31.14 371 31.19C367.65 30.85 364.3 30.5 360.95 30.16ZM217.86 39.57C217.91 40.13 217.95 40.69 218 41.25C218.33 41.58 218.67 41.92 219 42.25C218.58 43.17 218.17 44.08 217.75 45C216.83 44.62 215.92 44.25 215 43.87C215.95 42.44 216.91 41 217.86 39.57ZM190.86 63.06C190.9 63.96 190.95 64.85 191 65.75C190.67 66.08 190.33 66.42 190 66.75C190 67.42 190 68.08 190 68.75C188.99 70.34 187.98 71.93 186.97 73.52C188.26 70.04 189.56 66.55 190.86 63.06ZM221.94 66.15C222.21 66.1 222.48 66.05 222.75 66C223.08 66.33 223.42 66.67 223.75 67C225.83 67.05 227.92 67.09 230 67.14C226.88 69.14 224.43 69.19 221.94 66.15Z" fill="#ffffff" fill-rule="evenodd" stroke="#ffffff" stroke-width="0.25" stroke-linejoin="round"/>
</svg>