<?xml version="1.0" encoding="UTF-8"?>
<svg xmlns="http://www.w3.org/2000/svg" viewBox="0 0 405 408" width="405" height="408">
<path d="M154.5 80.13C154.58 80.25 154.67 80.38 154.75 80.5C155.33 80.75 155.92 81 156.5 81.25C156.17 81.58 155.83 81.92 155.5 82.25C155.5 82.49 155.5 82.73 155.5 82.96C149.84 87.03 144.18 91.1 138.53 95.18C136.33 95.37 132.31 99.4 132.22 101.57C129.82 104.93 127.42 108.29 125.02 111.66C124.35 112.02 123.67 112.39 123 112.75C122.83 113.75 122.67 114.75 122.5 115.75C122.65 115.83 122.8 115.92 122.95 116C122.89 117.15 122.82 118.3 122.75 119.45C123.01 119.46 123.28 119.47 123.54 119.48C122.98 121.09 114.48 127.84 112.55 130.32C105.18 139.85 98.37 149.61 93.26 160.47C75.85 197.47 82.02 254.8 94.82 292.38C98.1 302.02 101.23 311.38 104.98 320.78C106.27 323.99 106.63 328.38 109.25 331C110.97 327.55 106.76 320.72 105.98 316.75C104.69 310.18 102.53 303.76 101.12 297.22C99.52 289.77 98.65 282.02 97.26 274.51C90.68 238.96 94 188.98 113.95 158.19C137.33 122.09 178.99 98.58 221.11 118.65C230.88 123.3 239.51 129.55 247.26 137.04C249.4 139.12 254.69 143.06 254.75 146C258 146.66 265.4 159.08 267.18 162.61C268.22 164.65 269.74 166.43 270.86 168.39C272 170.42 272.46 172.87 273.5 174.92C279.66 187.1 284.44 200.84 285.05 214.75C285.58 227.03 285.73 239.05 283.9 251.23C281.59 266.52 275.87 281.46 269.67 295.39C268.21 298.69 265.92 301.54 264.31 304.54C256.81 318.53 247.73 332.71 235.68 343.43C232.12 346.59 228.17 349.3 224.5 352.27C214.81 360.11 203.63 366.74 191.87 371.14C188.36 372.45 184.24 375.47 180.57 375.05C180.82 374.79 181.08 374.52 181.34 374.25C179.39 373.92 177.45 373.58 175.5 373.25C175 373.19 174.5 373.14 174 373.08C173.92 372.89 173.83 372.69 173.75 372.5C173.25 372.33 172.75 372.17 172.25 372C170.92 371.83 169.58 371.67 168.25 371.5C167.98 371.75 167.72 372 167.45 372.25C162.61 371.62 157.84 370.07 153.51 367.71C151.78 366.77 149.75 365.39 147.75 365.04C141.27 363.91 134.93 366.76 128.57 366.28C126.36 365.61 117.55 364.47 116 365.55C112.18 364.21 106.49 363.36 103.77 360.07C103.23 358.41 101.26 357.75 99.75 357C99.34 357.05 98.92 357.1 98.51 357.15C95.46 356.34 92.75 353.83 90.18 352.08C82.9 347.11 75.26 341.39 69.6 334.5C69.73 334.25 69.87 334 70 333.75C68.74 331.75 66.7 329.14 64.49 328.64C60.72 325.38 56.06 319.67 54.3 315.05C54.37 314.61 54.43 314.18 54.5 313.75C53.31 312.41 52.12 311.07 50.94 309.72C48.51 307.67 47.39 304.13 45.8 301.42C41.25 293.63 38.42 285.33 35.66 277C36.51 274.99 35.01 269.52 33.43 268.08C30.82 263 29.7 253.28 29.74 247.51C29.83 245.26 29.91 243 30 240.75C29.71 240.33 29.42 239.92 29.13 239.5C27.33 224.36 28.99 201.89 33.39 187.5C35.38 185.56 36.2 180.74 35.84 178.04C36.55 172.67 41.74 156.6 45.09 152.5C45.31 152.5 45.53 152.5 45.75 152.5C46.5 151.25 47.25 150 48 148.75C47.96 148.19 47.92 147.63 47.88 147.07C48.43 143.86 51.06 140.77 52.68 137.98C56.02 132.2 60.34 124.9 65.51 120.53C65.84 120.61 66.17 120.68 66.5 120.75C67.76 118.24 72.13 116.22 72.3 113.46C74.34 110.97 81.01 104.4 83.93 103.93C84.29 104.03 84.64 104.14 85 104.25C87.65 102.17 90.3 100.09 92.94 98.01C95.1 95.38 103.34 92.27 106.65 90.85C120.95 84.73 138.39 78.61 154.5 80.13ZM121.71 99.25C120.54 97.36 118.6 97.23 116.5 97.25C114.69 101.16 111.44 100.71 107.99 102.33C102.41 104.96 97.98 110.67 92 112.25C90.63 116.47 79.97 125.04 77.18 129.21C74.61 133.06 71.76 137.26 69.75 141.46C68.88 143.28 68.72 145.33 67.89 147.15C66.84 149.44 64.59 151.56 63.94 154C63.53 155.57 63.68 157.3 63.12 158.82C62.76 159.79 61.81 160.31 61.46 161.27C60.69 163.43 59.11 174.67 60.05 176.25C63.04 176.04 63.17 172.1 64.02 169.77C66.07 164.1 69.66 158.64 72.68 153.49C77.98 144.44 86.61 138.09 93.98 130.74C94.99 129.72 95.5 128.29 96.57 127.32C99.14 124.99 102.26 122.47 105.1 120.36C107.15 118.84 109.89 118.17 111.92 116.65C116.47 113.27 116.56 106.29 121.71 105.25C121.71 103.25 121.71 101.25 121.71 99.25ZM131 156C129.08 156.08 127.16 156.17 125.23 156.25C125.15 158.82 125.06 161.39 124.97 163.96C124.65 163.39 124.32 162.82 124 162.25C124.01 163.26 124.44 164.29 124.41 165.23C124.26 169.59 116.79 177.97 114.8 182.04C111.2 189.4 107.63 205.15 108.5 213.25C108.83 216.37 109.47 221.2 111.55 223.68C114.53 227.24 122.45 228.61 126.75 228.37C131.69 228.1 136.45 225.53 141.27 224.57C148.04 223.21 153.96 220.57 160.55 218.79C168.8 216.55 178.37 213.8 185.75 209.29C185.83 209.86 185.9 210.44 185.98 211.01C184.19 214.04 181.4 216.72 179.14 219.43C173.29 226.43 167.42 233.41 161.66 240.48C159.65 242.96 153.5 248.76 153.25 251.5C158.77 251.42 164.29 251.33 169.8 251.25C169.77 256.81 165.19 268.89 163.22 274.41C151.52 307.15 124.18 338.58 87.53 342.25C89.73 343.76 94.56 343.04 97.23 342.82C106.32 342.08 115.44 339.52 123.89 336.23C152.51 325.06 177.91 302.18 187.76 272.54C189.54 267.18 190.19 261.73 191.25 256.23C196.92 258.32 202.58 260.41 208.25 262.5C203.16 243.98 198.06 225.47 192.97 206.95C195.89 203.15 202.57 202.64 206.75 200.02C207.7 199.42 208.07 198.38 209 197.76C211.46 196.15 214.35 194.68 216.88 193.12C218.5 192.11 220.62 192.2 222.3 191.43C223.72 190.78 223.95 189.26 225.03 188.35C228.03 185.83 231.15 184.25 233.75 181.18C234.14 181.45 234.52 181.73 234.91 182C235.02 183.67 235.14 185.35 235.25 187.02C237.75 187.02 240.25 187.01 242.75 187.01C242.92 184.06 243.08 181.12 243.25 178.17C246.27 178.03 249.29 177.89 252.31 177.75C252.31 175.25 252.31 172.75 252.31 170.25C249.54 170.14 246.77 170.02 244 169.91C243.07 166.54 245.19 162.64 245.64 159.16C246.19 154.91 242.9 148.01 240.52 144.52C235.75 137.53 227.22 134.75 219.83 131.89C205.07 126.19 186.51 123.79 171 128.4C168.17 129.25 165.55 130.71 162.75 131.64C159.92 132.58 156.65 133.52 154.05 135.01C152.86 135.69 152.06 136.91 150.99 137.74C149.22 139.12 147.16 140.24 145.47 141.72C140.48 146.14 136.29 151.96 131 156ZM212.5 334.14C211.17 334.14 209.83 334.14 208.5 334.14C208.58 334.76 208.67 335.38 208.75 336C209.58 336 210.42 336 211.25 336C211.67 335.38 212.08 334.76 212.5 334.14Z" fill="#871d41" fill-rule="evenodd" stroke="#871d41" stroke-width="0.25" stroke-linejoin="round"/>
<path d="M154.5 80.13C155.86 80.33 157.23 80.54 158.59 80.75C157.56 81.49 156.53 82.23 155.5 82.96C155.5 82.73 155.5 82.49 155.5 82.25C155.83 81.92 156.17 81.58 156.5 81.25C155.92 81 155.33 80.75 154.75 80.5C154.67 80.38 154.58 80.25 154.5 80.13ZM215 90.95C219.55 92.9 223.5 98.27 226.88 101.88C231.76 107.1 237.97 112.19 243.49 116.76C251.83 123.65 261.82 128.95 271.89 132.82C274.59 133.86 277.41 134.15 280 135.33C281.28 137.64 283.36 139.68 284.89 141.85C288.15 146.44 291.06 151.56 293.87 156.37C303.75 173.24 310.6 196.36 311.96 215.75C315.29 263.07 299.48 308.76 270.45 345.68C261.38 357.21 249.96 365.83 238.88 375.13C223.55 387.98 197.18 399.65 177.75 401.96C166.89 403.25 154.41 402.38 144.37 398.82C139.89 397.24 136.05 393.54 131.25 392.95C126.47 392.36 121.16 394.13 116.25 394.01C107.76 393.8 98.67 391.69 90.87 388.82C51.29 374.28 25.26 333.87 10.2 297.1C6.14 287.2 4.73 276.48 2.16 266.17C1.38 263.03 1.93 255.23 0.08 253C0.08 243.33 0.08 233.67 0.08 224C1.61 222.37 0.76 219.59 1.26 217.48C2.91 210.4 2.99 202.79 5.21 195.9C8.88 184.54 11.87 172.8 17.24 161.96C22.87 150.6 29.7 140.47 36.62 129.88C39.19 125.95 48.31 113.37 52.25 111.91C52.26 114.1 49.35 116.39 48.18 118.39C44.26 125.1 39.73 131.45 36.1 138.33C25.75 157.98 18.76 178.88 15.1 200.76C14.16 206.38 14.19 212.05 13.93 217.75C12.33 251.9 20.46 280.4 36.75 309.47C39.49 314.36 42.43 319.4 46 323.78C48.83 327.26 51.09 331.24 54.03 334.68C65.33 347.9 77.92 359.29 93.39 366.83C108.14 374.02 118.25 368.49 133.25 369C140.72 369.25 147.2 374.52 154.26 375.98C165.36 378.26 170.32 375.89 180.57 375.05C184.24 375.47 188.36 372.45 191.87 371.14C203.63 366.74 214.81 360.11 224.5 352.27C228.17 349.3 232.12 346.59 235.68 343.43C247.73 332.71 256.81 318.53 264.31 304.54C265.92 301.54 268.21 298.69 269.67 295.39C275.87 281.46 281.59 266.52 283.9 251.23C285.73 239.05 285.58 227.03 285.05 214.75C284.44 200.84 279.66 187.1 273.5 174.92C272.46 172.87 272 170.42 270.86 168.39C269.74 166.43 268.22 164.65 267.18 162.61C265.4 159.08 258 146.66 254.75 146C254.69 143.06 249.4 139.12 247.26 137.04C239.51 129.55 230.88 123.3 221.11 118.65C178.99 98.58 137.33 122.09 113.95 158.19C94 188.98 90.68 238.96 97.26 274.51C98.65 282.02 99.52 289.77 101.12 297.22C102.53 303.76 104.69 310.18 105.98 316.75C106.76 320.72 110.97 327.55 109.25 331C106.63 328.38 106.27 323.99 104.98 320.78C101.23 311.38 98.1 302.02 94.82 292.38C82.02 254.8 75.85 197.47 93.26 160.47C98.37 149.61 105.18 139.85 112.55 130.32C114.48 127.84 122.98 121.09 123.54 119.48C132.02 113.44 139.53 106.06 148.89 101.21C152.65 99.26 161.16 96.26 163.95 94.06C165.55 93.7 167.15 93.35 168.75 93C168.87 92.8 168.98 92.6 169.1 92.41C173.72 91.3 178.35 90.2 182.97 89.09C186.3 89.27 189.46 88.59 192.75 88.42C200.1 88.04 208.05 88.97 215 90.95ZM138.53 95.18C136.43 97.31 134.32 99.44 132.22 101.57C132.31 99.4 136.33 95.37 138.53 95.18ZM233.21 97.4C241.02 100.1 247.61 105.14 254.53 109.72C257.63 111.77 262.13 114.72 264.04 117.94C262.27 118.9 258.71 116.23 257.03 115.24C250.88 111.59 245.38 107.2 239.41 103.34C237.92 102.37 232.39 98.82 233.21 97.4ZM92.94 98.01C90.3 100.09 87.65 102.17 85 104.25C84.64 104.14 84.29 104.03 83.93 103.93C86.93 101.95 89.94 99.98 92.94 98.01ZM125.02 111.66C124.33 113.1 123.64 114.55 122.95 116C122.8 115.92 122.65 115.83 122.5 115.75C122.67 114.75 122.83 113.75 123 112.75C123.67 112.39 124.35 112.02 125.02 111.66ZM72.3 113.46C72.13 116.22 67.76 118.24 66.5 120.75C66.17 120.68 65.84 120.61 65.51 120.53C67.77 118.18 70.04 115.82 72.3 113.46ZM47.88 147.07C47.92 147.63 47.96 148.19 48 148.75C47.25 150 46.5 151.25 45.75 152.5C45.53 152.5 45.31 152.5 45.09 152.5C46.02 150.69 46.95 148.88 47.88 147.07ZM35.84 178.04C36.2 180.74 35.38 185.56 33.39 187.5C33.33 187.25 33.27 187 33.21 186.75C34.09 183.85 34.96 180.95 35.84 178.04ZM29.13 239.5C29.42 239.92 29.71 240.33 30 240.75C29.91 243 29.83 245.26 29.74 247.51C29.54 244.84 29.33 242.17 29.13 239.5ZM33.43 268.08C35.01 269.52 36.51 274.99 35.66 277C34.92 274.03 34.17 271.06 33.43 268.08ZM50.94 309.72C52.12 311.07 53.31 312.41 54.5 313.75C54.43 314.18 54.37 314.61 54.3 315.05C53.18 313.27 52.06 311.5 50.94 309.72ZM64.49 328.64C66.7 329.14 68.74 331.75 70 333.75C69.87 334 69.73 334.25 69.6 334.5C67.9 332.55 66.19 330.59 64.49 328.64ZM212.5 334.14C212.08 334.76 211.67 335.38 211.25 336C210.42 336 209.58 336 208.75 336C208.67 335.38 208.58 334.76 208.5 334.14C209.83 334.14 211.17 334.14 212.5 334.14ZM98.51 357.15C98.92 357.1 99.34 357.05 99.75 357C101.26 357.75 103.23 358.41 103.77 360.07C102.01 359.1 100.26 358.12 98.51 357.15ZM128.57 366.28C124.79 367.27 119.72 366.55 116 365.55C117.55 364.47 126.36 365.61 128.57 366.28ZM174 373.08C171.82 372.8 169.64 372.53 167.45 372.25C167.72 372 167.98 371.75 168.25 371.5C169.58 371.67 170.92 371.83 172.25 372C172.75 372.17 173.25 372.33 173.75 372.5C173.83 372.69 173.92 372.89 174 373.08Z" fill="#44021f" fill-rule="evenodd" stroke="#44021f" stroke-width="0.25" stroke-linejoin="round"/>
<path d="M360.93 30.16C364.45 30.51 367.98 30.86 371.5 31.21C371.58 31.47 371.67 31.74 371.75 32C375.17 31.92 378.58 31.83 382 31.75C379.83 31.61 377.67 31.47 375.5 31.33C380.35 30.94 385.2 30.55 390.06 30.16C391.29 30.25 392.52 30.33 393.75 30.42C393.69 32.11 393.63 33.81 393.57 35.51C392.69 35.17 383.93 37.24 382.26 37.59C375.29 39.06 367.57 39.09 360.47 39.74C357.73 39.98 354.82 39.02 352.25 40.17C358.46 42.91 365.98 42.99 372.75 43.05C375.2 43.08 377.89 42.73 380.25 43.36C380.41 47.68 373.6 57.42 371.29 61.54C361.16 79.61 348.05 97.26 331.07 109.33C326.4 112.65 321.42 115.38 316.44 118.21C314.16 119.51 311.65 121.58 309 121C306.22 119.58 295.74 121.56 291.25 120.65C279.76 118.31 270.75 115.02 260.57 109.18C247.77 101.84 238.49 89.86 227.83 79.91C226.64 78.8 224.97 78.42 223.55 77.69C219.49 75.61 216.3 72.88 213.2 69.56C210.91 67.11 205.8 59.33 205.2 56.13C204.74 53.64 207.27 51.49 209.66 51.67C216.32 52.19 216.35 63.16 221.93 66.16C224.41 69.21 226.9 69.17 230.01 67.14C233.95 65.47 237.36 61.58 240.44 58.69C245.86 53.6 251.41 48.27 257.01 43.27C268.68 32.86 286.73 24.23 301.85 21.19C314.78 18.59 329.66 20.68 342.15 24.17C348.26 25.87 354.54 29.96 360.93 30.16ZM212.94 23.95C218.16 27.66 218.81 33.82 217.86 39.55C216.9 40.99 215.95 42.43 214.99 43.87C212.53 44.91 210.26 46.53 207.76 47.55C205.44 48.5 202.44 48.69 200.33 50.07C196.09 52.84 192.38 58.35 190.85 63.04C189.56 66.53 188.26 70.02 186.96 73.51C185.04 78.15 182.97 83.99 182.97 89.09C178.35 90.2 173.72 91.3 169.1 92.41C168.54 92.19 167.98 91.97 167.41 91.75C168.45 87.79 168.23 83.48 169.25 79.48C172.08 68.49 177.3 57.95 181.78 47.58C183.63 43.33 187.41 33.91 191.75 31.94C193.46 34.79 192.72 41.43 196.25 42.96C197.53 41.4 195.68 37.96 195.79 35.75C196.08 29.97 203.25 19.66 209.75 24.5C210.46 23.15 211.44 24 212.94 23.95ZM197.5 39.25C198.64 39.01 199.62 38.27 200.78 38.15C207.81 37.45 210.99 40.34 211.11 30.75C211.14 28.9 210.93 27.08 209.59 25.68C203.57 19.39 194.47 32.77 197.5 39.25ZM333.51 33.25C326.99 30.46 320.31 30 313.25 29.91C294.63 29.68 279.83 35.18 265.22 46.48C261.68 49.21 250.75 58.77 250.75 63.08C256.24 61.73 266 54.19 271.49 51.26C279.47 46.99 288.68 43.18 297.35 40.65C304.94 38.44 312.93 36.55 320.73 35.33C324.21 34.78 330.81 35.23 333.51 33.25ZM356.63 53.25C352.79 53.26 340.76 60.72 336.38 62.64C322.63 68.68 305.86 75.1 290.75 75.94C283.23 76.36 275.81 76.96 268.25 77.14C265.43 77.21 260.47 77.06 258.34 78.75C263.35 84 279.25 86.03 286.25 86.56C308.42 88.23 327.07 82.44 344.11 68.37C348.81 64.49 354.54 59.11 356.63 53.25ZM355.09 74.75C352.93 74.84 343.3 82.92 340.4 84.66C331.78 89.85 322.62 93.17 312.89 95.7C302.7 98.35 290.26 98.63 279.94 96.75C275.38 95.92 265.78 92.35 261.82 93.25C265.58 98.64 272.71 101.13 278.46 103.79C302.05 114.72 325.4 110.18 343.26 91.51C347.49 87.09 353.53 80.75 355.09 74.75ZM131 156C138.42 156.08 145.84 156.17 153.26 156.25C154.08 157.77 154.41 161.13 153.54 162.77C152.85 164.07 151.32 165 150.37 166.1C148.36 168.42 146.54 171.15 145.19 173.91C143.34 177.7 142.09 181.85 141.25 185.99C140.86 187.94 141.03 189.9 140.29 191.75C137.19 191.75 134.1 191.75 131 191.75C130.99 185.3 133.36 178.66 136.27 172.99C137.63 170.35 141.03 167.33 141.25 164.42C135.82 164.27 130.4 164.12 124.97 163.96C125.06 161.39 125.15 158.82 125.23 156.25C127.16 156.17 129.08 156.08 131 156ZM172.18 184C177.06 184 181.94 184 186.81 184C186.81 186.66 186.81 189.32 186.81 191.98C176.93 191.98 167.05 191.98 157.17 191.98C157.2 179.45 171.26 177.16 175.99 168.73C178.17 164.85 174.07 161.4 170.3 163.05C168.35 163.91 168.17 166.09 167.36 167.75C164.24 167.42 161.12 167.08 158 166.75C158.29 154.36 178.26 151.53 184.78 160.45C186.47 162.75 186.9 165.75 186.24 168.47C184.16 177.17 174.33 178.34 172.18 184ZM200.9 156.23C216.4 152.27 222.25 164.92 220.31 178.17C219.48 183.84 218.18 189.7 212.03 191.74C197.44 196.58 191.09 186.07 191.13 173.25C191.16 166.11 193.09 158.23 200.9 156.23ZM244 169.91C246.77 170.02 249.54 170.14 252.31 170.25C252.31 172.75 252.31 175.25 252.31 177.75C249.29 177.89 246.27 178.03 243.25 178.17C243.08 181.12 242.92 184.06 242.75 187.01C240.25 187.01 237.75 187.02 235.25 187.02C235.14 185.35 235.02 183.67 234.91 182C234.86 180.73 234.8 179.46 234.75 178.19C231.83 178.04 228.92 177.9 226 177.75C226 175.25 226 172.75 226 170.25C228.95 170.08 231.89 169.92 234.84 169.75C234.98 166.74 235.11 163.73 235.25 160.71C237.75 160.7 240.25 160.69 242.75 160.68C243.23 162.83 241.96 169.1 244 169.91ZM205.33 162.69C199.67 163.16 200.72 176.95 201.59 180.73C202.09 182.9 203.01 185.61 205.75 185.67C208.51 185.73 209.81 183.07 210.18 180.79C210.85 176.62 212.37 162.1 205.33 162.69ZM192.97 206.95C198.06 225.47 203.16 243.98 208.25 262.5C202.58 260.41 196.92 258.32 191.25 256.23C190.19 261.73 189.54 267.18 187.76 272.54C177.91 302.18 152.51 325.06 123.89 336.23C115.44 339.52 106.32 342.08 97.23 342.82C94.56 343.04 89.73 343.76 87.53 342.25C124.18 338.58 151.52 307.15 163.22 274.41C165.19 268.89 169.77 256.81 169.8 251.25C164.29 251.33 158.77 251.42 153.25 251.5C153.5 248.76 159.65 242.96 161.66 240.48C167.42 233.41 173.29 226.43 179.14 219.43C181.4 216.72 184.19 214.04 185.98 211.01C187.9 208.94 189.83 206.87 191.75 204.81C192.16 205.52 192.56 206.24 192.97 206.95Z" fill="#8fbe0e" fill-rule="evenodd" stroke="#8fbe0e" stroke-width="0.25" stroke-linejoin="round"/>
<path d="M121.71 99.25C121.71 101.25 121.71 103.25 121.71 105.25C116.56 106.29 116.47 113.27 111.92 116.65C109.89 118.17 107.15 118.84 105.1 120.36C102.26 122.47 99.14 124.99 96.57 127.32C95.5 128.29 94.99 129.72 93.98 130.74C86.61 138.09 77.98 144.44 72.68 153.49C69.66 158.64 66.07 164.1 64.02 169.77C63.17 172.1 63.04 176.04 60.05 176.25C59.11 174.67 60.69 163.43 61.46 161.27C61.81 160.31 62.76 159.79 63.12 158.82C63.68 157.3 63.53 155.57 63.94 154C64.59 151.56 66.84 149.44 67.89 147.15C68.72 145.33 68.88 143.28 69.75 141.46C71.76 137.26 74.61 133.06 77.18 129.21C79.97 125.04 90.63 116.47 92 112.25C97.98 110.67 102.41 104.96 107.99 102.33C111.44 100.71 114.69 101.16 116.5 97.25C118.6 97.23 120.54 97.36 121.71 99.25ZM244 169.91C241.96 169.1 243.23 162.83 242.75 160.68C240.25 160.69 237.75 160.7 235.25 160.71C235.11 163.73 234.98 166.74 234.84 169.75C231.89 169.92 228.95 170.08 226 170.25C226 172.75 226 175.25 226 177.75C228.92 177.9 231.83 178.04 234.75 178.19C234.8 179.46 234.86 180.73 234.91 182C234.52 181.73 234.14 181.45 233.75 181.18C231.15 184.25 228.03 185.83 225.03 188.35C223.95 189.26 223.72 190.78 222.3 191.43C220.62 192.2 218.5 192.11 216.88 193.12C214.35 194.68 211.46 196.15 209 197.76C208.07 198.38 207.7 199.42 206.75 200.02C202.57 202.64 195.89 203.15 192.97 206.95C192.56 206.24 192.16 205.52 191.75 204.81C189.83 206.87 187.9 208.94 185.98 211.01C185.9 210.44 185.83 209.86 185.75 209.29C178.37 213.8 168.8 216.55 160.55 218.79C153.96 220.57 148.04 223.21 141.27 224.57C136.45 225.53 131.69 228.1 126.75 228.37C122.45 228.61 114.53 227.24 111.55 223.68C109.47 221.2 108.83 216.37 108.5 213.25C107.63 205.15 111.2 189.4 114.8 182.04C116.79 177.97 124.26 169.59 124.41 165.23C124.44 164.29 124.01 163.26 124 162.25C124.32 162.82 124.65 163.39 124.97 163.96C130.4 164.12 135.82 164.27 141.25 164.42C141.03 167.33 137.63 170.35 136.27 172.99C133.36 178.66 130.99 185.3 131 191.75C134.1 191.75 137.19 191.75 140.29 191.75C141.03 189.9 140.86 187.94 141.25 185.99C142.09 181.85 143.34 177.7 145.19 173.91C146.54 171.15 148.36 168.42 150.37 166.1C151.32 165 152.85 164.07 153.54 162.77C154.41 161.13 154.08 157.77 153.26 156.25C145.84 156.17 138.42 156.08 131 156C136.29 151.96 140.48 146.14 145.47 141.72C147.16 140.24 149.22 139.12 150.99 137.74C152.06 136.91 152.86 135.69 154.05 135.01C156.65 133.52 159.92 132.58 162.75 131.64C165.55 130.71 168.17 129.25 171 128.4C186.51 123.79 205.07 126.19 219.83 131.89C227.22 134.75 235.75 137.53 240.52 144.52C242.9 148.01 246.19 154.91 245.64 159.16C245.19 162.64 243.07 166.54 244 169.91ZM172.18 184C174.33 178.34 184.16 177.17 186.24 168.47C186.9 165.75 186.47 162.75 184.78 160.45C178.26 151.53 158.29 154.36 158 166.75C161.12 167.08 164.24 167.42 167.36 167.75C168.17 166.09 168.35 163.91 170.3 163.05C174.07 161.4 178.17 164.85 175.99 168.73C171.26 177.16 157.2 179.45 157.17 191.98C167.05 191.98 176.93 191.98 186.81 191.98C186.81 189.32 186.81 186.66 186.81 184C181.94 184 177.06 184 172.18 184ZM200.9 156.23C193.09 158.23 191.16 166.11 191.13 173.25C191.09 186.07 197.44 196.58 212.03 191.74C218.18 189.7 219.48 183.84 220.31 178.17C222.25 164.92 216.4 152.27 200.9 156.23ZM205.33 162.69C212.37 162.1 210.85 176.62 210.18 180.79C209.81 183.07 208.51 185.73 205.75 185.67C203.01 185.61 202.09 182.9 201.59 180.73C200.72 176.95 199.67 163.16 205.33 162.69Z" fill="#aa1a51" fill-rule="evenodd" stroke="#aa1a51" stroke-width="0.25" stroke-linejoin="round"/>
<path d="M212.94 23.95C211.44 24 210.46 23.15 209.75 24.5C203.25 19.66 196.08 29.97 195.79 35.75C195.68 37.96 197.53 41.4 196.25 42.96C192.72 41.43 193.46 34.79 191.75 31.94C187.41 33.91 183.63 43.33 181.78 47.58C177.3 57.95 172.08 68.49 169.25 79.48C168.23 83.48 168.45 87.79 167.41 91.75C167.98 91.97 168.54 92.19 169.1 92.41C168.98 92.6 168.87 92.8 168.75 93C167.15 93.35 165.55 93.7 163.95 94.06C163.98 88.86 165.03 83.74 165.79 78.64C168.3 61.81 171.49 42.65 183.45 29.7C190.93 21.6 203.37 13.53 212.94 23.95ZM371.5 31.21C372.83 31.25 374.17 31.29 375.5 31.33C377.67 31.47 379.83 31.61 382 31.75C378.58 31.83 375.17 31.92 371.75 32C371.67 31.74 371.58 31.47 371.5 31.21ZM393.57 35.51C391.82 38.29 391.08 41.5 389.69 44.44C385.87 52.55 381.83 60.56 377.74 68.51C364.89 93.52 341.41 121.59 315.16 132.88C307.84 136.03 298.6 135.89 290.75 135.63C287.44 135.53 283.11 134.43 280 135.33C277.41 134.15 274.59 133.86 271.89 132.82C261.82 128.95 251.83 123.65 243.49 116.76C237.97 112.19 231.76 107.1 226.88 101.88C223.5 98.27 219.55 92.9 215 90.95C215.45 89.47 212.36 87.42 211.21 86.56C207.54 83.8 202.46 78.87 201.75 74.2C204.28 75.57 206.53 78.99 208.85 80.91C211.43 83.05 215.01 84.59 217.92 86.33C223.29 89.52 228.13 94.03 233.21 97.4C232.39 98.82 237.92 102.37 239.41 103.34C245.38 107.2 250.88 111.59 257.03 115.24C258.71 116.23 262.27 118.9 264.04 117.94C266.31 119.05 268.27 120.93 270.92 121.78C280.02 124.7 291.26 125.15 300.59 123.29C303.27 122.75 306.76 122.67 309 121C311.65 121.58 314.16 119.51 316.44 118.21C321.42 115.38 326.4 112.65 331.07 109.33C348.05 97.26 361.16 79.61 371.29 61.54C373.6 57.42 380.41 47.68 380.25 43.36C377.89 42.73 375.2 43.08 372.75 43.05C365.98 42.99 358.46 42.91 352.25 40.17C354.82 39.02 357.73 39.98 360.47 39.74C367.57 39.09 375.29 39.06 382.26 37.59C383.93 37.24 392.69 35.17 393.57 35.51ZM356.63 53.25C354.54 59.11 348.81 64.49 344.11 68.37C327.07 82.44 308.42 88.23 286.25 86.56C279.25 86.03 263.35 84 258.34 78.75C260.47 77.06 265.43 77.21 268.25 77.14C275.81 76.96 283.23 76.36 290.75 75.94C305.86 75.1 322.63 68.68 336.38 62.64C340.76 60.72 352.79 53.26 356.63 53.25Z" fill="#739510" fill-rule="evenodd" stroke="#739510" stroke-width="0.25" stroke-linejoin="round"/>
<path d="M197.5 39.25C194.47 32.77 203.57 19.39 209.59 25.68C210.93 27.08 211.14 28.9 211.11 30.75C210.99 40.34 207.81 37.45 200.78 38.15C199.62 38.27 198.64 39.01 197.5 39.25ZM333.51 33.25C330.81 35.23 324.21 34.78 320.73 35.33C312.93 36.55 304.94 38.44 297.35 40.65C288.68 43.18 279.47 46.99 271.49 51.26C266 54.19 256.24 61.73 250.75 63.08C250.75 58.77 261.68 49.21 265.22 46.48C279.83 35.18 294.63 29.68 313.25 29.91C320.31 30 326.99 30.46 333.51 33.25ZM355.09 74.75C353.53 80.75 347.49 87.09 343.26 91.51C325.4 110.18 302.05 114.72 278.46 103.79C272.71 101.13 265.58 98.64 261.82 93.25C265.78 92.35 275.38 95.92 279.94 96.75C290.26 98.63 302.7 98.35 312.89 95.7C322.62 93.17 331.78 89.85 340.4 84.66C343.3 82.92 352.93 74.84 355.09 74.75Z" fill="#aad80f" fill-rule="evenodd" stroke="#aad80f" stroke-width="0.25" stroke-linejoin="round"/>
<path d="M360.93 30.16C370.64 30.16 380.35 30.16 390.06 30.16C385.2 30.55 380.35 30.94 375.5 31.33C374.17 31.29 372.83 31.25 371.5 31.21C367.98 30.86 364.45 30.51 360.93 30.16ZM217.86 39.55C217.91 40.12 217.95 40.68 218 41.25C218.33 41.58 218.67 41.92 219 42.25C218.58 43.17 218.17 44.08 217.75 45C216.83 44.62 215.91 44.25 214.99 43.87C215.95 42.43 216.9 40.99 217.86 39.55ZM190.85 63.04C190.9 63.94 190.95 64.85 191 65.75C190.67 66.08 190.33 66.42 190 66.75C190 67.42 190 68.08 190 68.75C189.25 70.17 188.5 71.58 187.75 73C187.49 73.17 187.23 73.34 186.96 73.51C188.26 70.02 189.56 66.53 190.85 63.04ZM221.93 66.16C222.21 66.1 222.48 66.05 222.75 66C223.08 66.33 223.42 66.67 223.75 67C225.84 67.05 227.93 67.09 230.01 67.14C226.9 69.17 224.41 69.21 221.93 66.16Z" fill="#ffffff" fill-rule="evenodd" stroke="#ffffff" stroke-width="0.25" stroke-linejoin="round"/>
</svg>